<svg width="96" height="114" viewBox="0 0 96 114" fill="none" xmlns="http://www.w3.org/2000/svg">
<g clip-path="url(#clip0_2196_7)">
<path d="M11.1295 51.0267C13.0179 51.0267 14.6652 49.4599 14.6652 47.5714C14.6652 45.6429 13.0179 44.076 11.1295 44.076H3.41518C1.56696 44.076 0 45.683 0 47.5714C0 49.4198 1.56696 51.0267 3.41518 51.0267H11.1295ZM19.3661 24.308C20.692 25.6339 22.9018 25.6741 24.2277 24.308C25.5937 22.942 25.5536 20.7723 24.2277 19.4464L18.8036 13.942C17.5179 12.6161 15.2678 12.6161 13.9018 13.942C12.5759 15.3482 12.5759 17.4777 13.9018 18.8036L19.3661 24.308ZM44.076 11.2098C44.076 13.058 45.6429 14.6652 47.5313 14.6652C49.4599 14.6652 51.0267 13.058 51.0267 11.2098V3.49553C51.0267 1.60714 49.4198 0 47.5313 0C45.6429 0 44.076 1.60714 44.076 3.49553V11.2098ZM70.7945 19.4464C69.4687 20.7723 69.4286 22.942 70.7945 24.308C72.2009 25.6741 74.3304 25.6339 75.6562 24.308L81.1608 18.8036C82.4866 17.4777 82.4866 15.3482 81.1608 13.942C79.7544 12.6161 77.6249 12.6161 76.2991 13.942L70.7945 19.4464ZM91.5669 51.0267C93.4553 51.0267 95.0626 49.4198 95.0626 47.5714C95.0626 45.683 93.4553 44.076 91.5669 44.076H83.8526C82.0046 44.076 80.3973 45.6429 80.3973 47.5714C80.3973 49.4599 82.0046 51.0267 83.8526 51.0267H91.5669Z" fill="#DF1C56"/>
<path d="M47.5305 22.1384C33.3072 22.1384 22.1777 32.4643 22.1777 45.6028C22.1777 60.1475 30.8563 63.7636 33.267 88.8751C33.4277 90.2812 34.1911 91.1651 35.6776 91.1651H59.383C60.8697 91.1651 61.6332 90.2812 61.7536 88.8751C64.2046 63.7636 72.9232 60.1475 72.9232 45.6028C72.9232 32.4643 61.7135 22.1384 47.5305 22.1384ZM47.5305 28.0447C58.0973 28.0447 67.0171 35.3973 67.0171 45.6028C67.0171 56.3706 59.8651 58.8618 56.4098 85.259H38.6508C35.1955 58.8618 28.084 56.3706 28.084 45.6028C28.084 35.3973 36.9633 28.0447 47.5305 28.0447ZM35.5572 99.3618H59.5037C60.8296 99.3618 61.8341 98.3973 61.8341 97.0715C61.8341 95.7456 60.8296 94.7812 59.5037 94.7812H35.5572C34.2715 94.7812 33.267 95.7456 33.267 97.0715C33.267 98.3973 34.2715 99.3618 35.5572 99.3618ZM47.5305 110.371C53.4365 110.371 58.459 107.397 58.7402 102.978H36.3208C36.5618 107.397 41.584 110.371 47.5305 110.371Z" fill="#DF1C56"/>
</g>
<defs>
<clipPath id="clip0_2196_7">
<rect width="96" height="113.143" fill="white"/>
</clipPath>
</defs>
</svg>
